<?xml version="1.0" standalone="no"?>
<!DOCTYPE svg PUBLIC "-//W3C//DTD SVG 20010904//EN"
 "http://www.w3.org/TR/2001/REC-SVG-20010904/DTD/svg10.dtd">
<svg version="1.0" xmlns="http://www.w3.org/2000/svg"
 width="700.000000pt" height="700.000000pt" viewBox="0 0 700.000000 700.000000"
 preserveAspectRatio="xMidYMid meet">
<metadata>
Created by potrace 1.11, written by Peter Selinger 2001-2013
</metadata>
<g transform="translate(0.000000,700.000000) scale(0.100000,-0.100000)"
fill="#000000" stroke="none">
<path d="M2805 6365 c-300 -55 -585 -260 -720 -518 l-29 -54 -72 47 c-286 186
-667 168 -944 -45 -102 -78 -195 -197 -246 -311 -50 -113 -68 -200 -69 -329 0
-156 20 -244 90 -380 l53 -105 -166 0 c-191 0 -257 -12 -360 -64 -167 -85
-290 -243 -327 -421 -22 -104 -22 -2975 0 -3078 25 -118 77 -211 169 -302 93
-92 167 -136 282 -165 76 -20 119 -20 2223 -20 1885 0 2154 2 2206 15 201 51
370 207 443 407 27 72 27 76 30 381 2 169 7 307 12 307 4 0 315 -103 690 -230
376 -126 696 -230 712 -230 68 0 182 98 206 178 9 29 12 339 12 1233 0 1137
-1 1196 -19 1234 -34 77 -122 124 -200 110 -20 -4 -342 -110 -715 -236 -374
-126 -683 -229 -688 -229 -4 0 -8 130 -8 288 0 372 -12 427 -124 579 -52 71
-133 138 -215 179 -123 60 -98 58 -709 64 l-564 5 39 50 c83 106 151 245 189
390 26 98 27 380 1 475 -97 353 -327 610 -656 730 -156 57 -364 75 -526 45z
m380 -429 c263 -84 427 -329 413 -615 -13 -255 -173 -467 -418 -552 -98 -34
-251 -38 -357 -9 -373 100 -559 522 -386 873 74 149 248 284 415 322 92 21
233 13 333 -19z m-1520 -399 c173 -54 286 -207 286 -387 -1 -147 -63 -263
-188 -349 -83 -57 -232 -78 -335 -46 -107 32 -208 120 -254 220 -148 322 154
667 491 562z m4905 -2902 l0 -864 -457 155 c-252 86 -525 179 -608 207 l-150
52 -3 444 c-1 245 2 449 6 453 6 6 1186 413 1210 418 1 0 2 -389 2 -865z
m-3804 -554 c153 -69 154 -294 2 -372 -36 -18 -70 -19 -823 -19 -753 0 -787 1
-823 19 -128 66 -151 233 -45 333 62 59 28 57 873 57 736 1 777 0 816 -18z"/>
</g>
</svg>
